<svg width="28" height="28" viewBox="0 0 28 28" fill="none" xmlns="http://www.w3.org/2000/svg">
<path d="M14 24C19.5228 24 24 19.5228 24 14C24 8.47715 19.5228 4 14 4C8.47715 4 4 8.47715 4 14C4 19.5228 8.47715 24 14 24Z" stroke="#9C9C9C" stroke-width="1.5"/>
<path d="M12.125 10.875C12.125 10.5466 12.2113 10.224 12.3752 9.9395C12.5391 9.65495 12.7748 9.41843 13.0588 9.2536C13.3428 9.08877 13.6651 9.00141 13.9934 9.00026C14.3218 8.9991 14.6447 9.0842 14.9298 9.24704C15.215 9.40988 15.4523 9.64474 15.6182 9.92813C15.7841 10.2115 15.8726 10.5335 15.875 10.8618C15.8773 11.1902 15.7934 11.5134 15.6316 11.7991C15.4698 12.0849 15.2358 12.3231 14.953 12.49C14.478 12.771 14 13.198 14 13.75V15" stroke="#9C9C9C" stroke-width="1.5" stroke-linecap="round"/>
<path d="M14 19C14.5523 19 15 18.5523 15 18C15 17.4477 14.5523 17 14 17C13.4477 17 13 17.4477 13 18C13 18.5523 13.4477 19 14 19Z" fill="#9C9C9C"/>
</svg>
