<svg width="28" height="28" viewBox="0 0 28 28" fill="none" xmlns="http://www.w3.org/2000/svg">
<path fill-rule="evenodd" clip-rule="evenodd" d="M24 14C24 19.523 19.523 24 14 24C8.477 24 4 19.523 4 14C4 8.477 8.477 4 14 4C19.523 4 24 8.477 24 14ZM14 9.75C13.379 9.75 12.875 10.254 12.875 10.875C12.875 11.0739 12.796 11.2647 12.6553 11.4053C12.5147 11.546 12.3239 11.625 12.125 11.625C11.9261 11.625 11.7353 11.546 11.5947 11.4053C11.454 11.2647 11.375 11.0739 11.375 10.875C11.375 10.4449 11.4807 10.0215 11.6827 9.64182C11.8848 9.26218 12.177 8.93799 12.5337 8.69777C12.8905 8.45754 13.3007 8.30865 13.7285 8.26416C14.1562 8.21968 14.5884 8.28098 14.9869 8.44266C15.3854 8.60435 15.7381 8.86147 16.0139 9.19142C16.2898 9.52137 16.4803 9.91403 16.5688 10.3349C16.6573 10.7557 16.6411 11.1919 16.5215 11.605C16.4019 12.0181 16.1826 12.3955 15.883 12.704C15.791 12.7987 15.703 12.8877 15.619 12.971C15.4165 13.165 15.2258 13.3711 15.048 13.588C14.828 13.87 14.75 14.077 14.75 14.25V15C14.75 15.1989 14.671 15.3897 14.5303 15.5303C14.3897 15.671 14.1989 15.75 14 15.75C13.8011 15.75 13.6103 15.671 13.4697 15.5303C13.329 15.3897 13.25 15.1989 13.25 15V14.25C13.25 13.595 13.555 13.064 13.864 12.667C14.093 12.373 14.38 12.087 14.614 11.853C14.6847 11.783 14.749 11.7183 14.807 11.659C14.9611 11.5004 15.0651 11.2999 15.1059 11.0825C15.1467 10.8652 15.1225 10.6406 15.0364 10.437C14.9503 10.2333 14.8061 10.0595 14.6217 9.93729C14.4374 9.81511 14.2211 9.74997 14 9.75ZM14 19C14.2652 19 14.5196 18.8946 14.7071 18.7071C14.8946 18.5196 15 18.2652 15 18C15 17.7348 14.8946 17.4804 14.7071 17.2929C14.5196 17.1054 14.2652 17 14 17C13.7348 17 13.4804 17.1054 13.2929 17.2929C13.1054 17.4804 13 17.7348 13 18C13 18.2652 13.1054 18.5196 13.2929 18.7071C13.4804 18.8946 13.7348 19 14 19Z" fill="#F0331B"/>
</svg>
