<svg width="28" height="28" viewBox="0 0 28 28" fill="none" xmlns="http://www.w3.org/2000/svg">
<path d="M19.0038 10.2052V8.20348C19.0038 6.31585 19.0038 5.37303 18.4173 4.78652C17.8309 4.20001 16.8882 4.20001 15.0007 4.20001H12.9992C11.1117 4.20001 10.169 4.20001 9.58254 4.78652C8.99609 5.37303 8.99609 6.31585 8.99609 8.20348V10.2052" stroke="#9C9C9C" stroke-width="1.5"/>
<path d="M12.5621 7.98629C13.003 7.74592 13.4971 7.61996 13.9992 7.61996C14.5013 7.61996 14.9955 7.74592 15.4363 7.98629L20.234 10.6026C20.7077 10.8608 21.103 11.2419 21.3784 11.7058C21.6539 12.1698 21.7992 12.6993 21.7992 13.2388V18.1811C21.7992 18.7207 21.6539 19.2502 21.3784 19.7141C21.103 20.178 20.7077 20.5592 20.234 20.8174L15.4363 23.4337C14.9955 23.6741 14.5013 23.8 13.9992 23.8C13.4971 23.8 13.003 23.6741 12.5621 23.4337L7.76342 20.8174C7.28995 20.559 6.89482 20.1779 6.61958 19.714C6.34433 19.25 6.19912 18.7206 6.19922 18.1811V13.2378C6.19912 12.6984 6.34433 12.1689 6.61958 11.705C6.89482 11.2411 7.28995 10.8599 7.76342 10.6016L12.5621 7.98629Z" stroke="#9C9C9C" stroke-width="1.5"/>
<path d="M13.144 13.7313C13.5243 13.0487 13.7145 12.7074 13.9987 12.7074C14.2829 12.7074 14.473 13.0487 14.8533 13.7313L14.9514 13.9074C15.0595 14.1016 15.1135 14.1977 15.1976 14.2627C15.2827 14.3258 15.3878 14.3498 15.5979 14.3979L15.7881 14.4409C16.5266 14.608 16.8959 14.6911 16.984 14.9744C17.072 15.2566 16.8199 15.5509 16.3165 16.1394L16.1864 16.2915C16.0433 16.4597 15.9712 16.5427 15.9392 16.6468C15.9072 16.7509 15.9182 16.861 15.9392 17.0852L15.9592 17.2884C16.0352 18.073 16.0733 18.4664 15.8441 18.6405C15.6139 18.8157 15.2677 18.6566 14.5761 18.3383L14.398 18.2552C14.2008 18.1651 14.1028 18.1201 13.9987 18.1201C13.8946 18.1201 13.7965 18.1651 13.5994 18.2552L13.4212 18.3383C12.7297 18.6566 12.3834 18.8157 12.1533 18.6405C11.9231 18.4664 11.9621 18.073 12.0382 17.2884L12.0582 17.0852C12.0792 16.861 12.0902 16.7499 12.0582 16.6468C12.0262 16.5427 11.9541 16.4597 11.811 16.2915L11.6809 16.1394C11.1775 15.5509 10.9253 15.2566 11.0134 14.9744C11.1015 14.6911 11.4707 14.608 12.2093 14.4409L12.3995 14.3979C12.6096 14.3498 12.7147 14.3258 12.7998 14.2627C12.8838 14.1987 12.9379 14.1016 13.046 13.9074L13.144 13.7313Z" stroke="#9C9C9C" stroke-width="1.5"/>
</svg>
