<svg width="28" height="28" viewBox="0 0 28 28" fill="none" xmlns="http://www.w3.org/2000/svg">
<path fill-rule="evenodd" clip-rule="evenodd" d="M15.4351 7.783C14.9946 7.54283 14.5008 7.41699 13.9991 7.41699C13.4973 7.41699 13.0036 7.54283 12.5631 7.783L7.76808 10.397C7.29497 10.6552 6.90015 11.036 6.62511 11.4995C6.35007 11.963 6.20498 12.492 6.20508 13.031V17.969C6.20498 18.508 6.35007 19.037 6.62511 19.5005C6.90015 19.964 7.29497 20.3448 7.76808 20.603L12.5631 23.217C13.0036 23.4572 13.4973 23.583 13.9991 23.583C14.5008 23.583 14.9946 23.4572 15.4351 23.217L20.2291 20.603C20.7024 20.345 21.0974 19.9642 21.3726 19.5007C21.6478 19.0372 21.7931 18.5081 21.7931 17.969V13.03C21.7931 12.4909 21.6478 11.9618 21.3726 11.4983C21.0974 11.0348 20.7024 10.654 20.2291 10.396L15.4351 7.783ZM13.9991 12.5C13.7151 12.5 13.5251 12.84 13.1451 13.523L13.0471 13.699C12.9391 13.893 12.8851 13.989 12.8011 14.053C12.7161 14.117 12.6111 14.141 12.4011 14.188L12.2111 14.232C11.4731 14.399 11.1041 14.482 11.0161 14.764C10.9281 15.046 11.1801 15.341 11.6831 15.929L11.8131 16.081C11.9561 16.248 12.0281 16.331 12.0601 16.435C12.0921 16.539 12.0811 16.65 12.0601 16.873L12.0401 17.076C11.9641 17.861 11.9261 18.254 12.1551 18.428C12.3851 18.602 12.7311 18.443 13.4221 18.125L13.6001 18.043C13.7971 17.953 13.8951 17.908 13.9991 17.908C14.1031 17.908 14.2011 17.953 14.3981 18.043L14.5761 18.125C15.2671 18.444 15.6131 18.602 15.8431 18.428C16.0731 18.254 16.0341 17.861 15.9581 17.076L15.9381 16.873C15.9171 16.65 15.9061 16.539 15.9381 16.435C15.9701 16.331 16.0421 16.248 16.1851 16.081L16.3151 15.929C16.8181 15.341 17.0701 15.047 16.9821 14.764C16.8941 14.482 16.5251 14.399 15.7871 14.232L15.5971 14.188C15.3871 14.141 15.2821 14.118 15.1971 14.053C15.1131 13.989 15.0591 13.893 14.9511 13.699L14.8531 13.523C14.4731 12.841 14.2831 12.5 13.9991 12.5Z" fill="#F0331B"/>
<path d="M13 4H15C16.886 4 17.828 4 18.414 4.586C19 5.172 19 6.114 19 8V8.018L16.154 6.466C15.4932 6.10575 14.7526 5.91699 14 5.91699C13.2474 5.91699 12.5068 6.10575 11.846 6.466L9 8.018V8C9 6.114 9 5.172 9.586 4.586C10.172 4 11.114 4 13 4Z" fill="#F0331B"/>
</svg>
