<svg width="28" height="28" viewBox="0 0 28 28" fill="none" xmlns="http://www.w3.org/2000/svg">
<path d="M19.667 4H8.333C8.023 4 7.869 4 7.739 4.012C6.289 4.145 5.139 5.352 5.011 6.873C5 7.01 5 7.173 5 7.497V22.26C5 23.132 6.059 23.503 6.558 22.804C6.63521 22.6918 6.73854 22.6001 6.85909 22.5367C6.97964 22.4733 7.1138 22.4402 7.25 22.4402C7.3862 22.4402 7.52036 22.4733 7.64091 22.5367C7.76146 22.6001 7.86479 22.6918 7.942 22.804L8.375 23.41C8.50072 23.5921 8.66878 23.741 8.86474 23.8439C9.0607 23.9467 9.27869 24.0004 9.5 24.0004C9.72131 24.0004 9.9393 23.9467 10.1353 23.8439C10.3312 23.741 10.4993 23.5921 10.625 23.41C10.7507 23.2279 10.9188 23.079 11.1147 22.9761C11.3107 22.8733 11.5287 22.8196 11.75 22.8196C11.9713 22.8196 12.1893 22.8733 12.3853 22.9761C12.5812 23.079 12.7493 23.2279 12.875 23.41C13.0007 23.5921 13.1688 23.741 13.3647 23.8439C13.5607 23.9467 13.7787 24.0004 14 24.0004C14.2213 24.0004 14.4393 23.9467 14.6353 23.8439C14.8312 23.741 14.9993 23.5921 15.125 23.41C15.2507 23.2279 15.4188 23.079 15.6147 22.9761C15.8107 22.8733 16.0287 22.8196 16.25 22.8196C16.4713 22.8196 16.6893 22.8733 16.8853 22.9761C17.0812 23.079 17.2493 23.2279 17.375 23.41C17.5007 23.5921 17.6688 23.741 17.8647 23.8439C18.0607 23.9467 18.2787 24.0004 18.5 24.0004C18.7213 24.0004 18.9393 23.9467 19.1353 23.8439C19.3312 23.741 19.4993 23.5921 19.625 23.41L20.058 22.805C20.1352 22.6928 20.2385 22.6011 20.3591 22.5377C20.4796 22.4743 20.6138 22.4412 20.75 22.4412C20.8862 22.4412 21.0204 22.4743 21.1409 22.5377C21.2615 22.6011 21.3648 22.6928 21.442 22.805C21.942 23.503 23 23.132 23 22.26V7.497C23 7.173 23 7.01 22.989 6.873C22.862 5.352 21.712 4.145 20.262 4.012C20.13 4 19.976 4 19.667 4Z" stroke="#9C9C9C" stroke-width="1.5"/>
<path d="M9.5 17.5H18.5M16 10L12 14M12 10L16 14" stroke="#9C9C9C" stroke-width="1.5" stroke-linecap="round"/>
</svg>
