<svg width="28" height="28" viewBox="0 0 28 28" fill="none" xmlns="http://www.w3.org/2000/svg">
<path fill-rule="evenodd" clip-rule="evenodd" d="M8.333 4H19.667C19.977 4 20.131 4 20.262 4.012C21.712 4.145 22.862 5.352 22.989 6.873C23 7.01 23 7.173 23 7.497V22.26C23 23.132 21.941 23.503 21.442 22.804C21.3648 22.6918 21.2615 22.6001 21.1409 22.5367C21.0204 22.4733 20.8862 22.4402 20.75 22.4402C20.6138 22.4402 20.4796 22.4733 20.3591 22.5367C20.2385 22.6001 20.1352 22.6918 20.058 22.804L19.625 23.41C19.4993 23.5921 19.3312 23.741 19.1353 23.8439C18.9393 23.9467 18.7213 24.0004 18.5 24.0004C18.2787 24.0004 18.0607 23.9467 17.8647 23.8439C17.6688 23.741 17.5007 23.5921 17.375 23.41C17.2493 23.2279 17.0812 23.079 16.8853 22.9761C16.6893 22.8733 16.4713 22.8196 16.25 22.8196C16.0287 22.8196 15.8107 22.8733 15.6147 22.9761C15.4188 23.079 15.2507 23.2279 15.125 23.41C14.9993 23.5921 14.8312 23.741 14.6353 23.8439C14.4393 23.9467 14.2213 24.0004 14 24.0004C13.7787 24.0004 13.5607 23.9467 13.3647 23.8439C13.1688 23.741 13.0007 23.5921 12.875 23.41C12.7493 23.2279 12.5812 23.079 12.3853 22.9761C12.1893 22.8733 11.9713 22.8196 11.75 22.8196C11.5287 22.8196 11.3107 22.8733 11.1147 22.9761C10.9188 23.079 10.7507 23.2279 10.625 23.41C10.4993 23.5921 10.3312 23.741 10.1353 23.8439C9.9393 23.9467 9.72131 24.0004 9.5 24.0004C9.27869 24.0004 9.0607 23.9467 8.86474 23.8439C8.66878 23.741 8.50072 23.5921 8.375 23.41L7.942 22.805C7.86479 22.6928 7.76146 22.6011 7.64091 22.5377C7.52036 22.4743 7.3862 22.4412 7.25 22.4412C7.1138 22.4412 6.97964 22.4743 6.85909 22.5377C6.73854 22.6011 6.63521 22.6928 6.558 22.805C6.058 23.503 5 23.132 5 22.26V7.497C5 7.173 5 7.01 5.011 6.873C5.138 5.352 6.288 4.145 7.739 4.012C7.869 4 8.024 4 8.333 4ZM12.53 9.47C12.4613 9.39631 12.3785 9.33721 12.2865 9.29622C12.1945 9.25523 12.0952 9.23319 11.9945 9.23141C11.8938 9.22963 11.7938 9.24816 11.7004 9.28588C11.607 9.3236 11.5222 9.37974 11.451 9.45096C11.3797 9.52218 11.3236 9.60701 11.2859 9.7004C11.2482 9.79379 11.2296 9.89382 11.2314 9.99452C11.2332 10.0952 11.2552 10.1945 11.2962 10.2865C11.3372 10.3785 11.3963 10.4613 11.47 10.53L12.94 12L11.47 13.47C11.3963 13.5387 11.3372 13.6215 11.2962 13.7135C11.2552 13.8055 11.2332 13.9048 11.2314 14.0055C11.2296 14.1062 11.2482 14.2062 11.2859 14.2996C11.3236 14.393 11.3797 14.4778 11.451 14.549C11.5222 14.6203 11.607 14.6764 11.7004 14.7141C11.7938 14.7518 11.8938 14.7704 11.9945 14.7686C12.0952 14.7668 12.1945 14.7448 12.2865 14.7038C12.3785 14.6628 12.4613 14.6037 12.53 14.53L14 13.06L15.47 14.53C15.5387 14.6037 15.6215 14.6628 15.7135 14.7038C15.8055 14.7448 15.9048 14.7668 16.0055 14.7686C16.1062 14.7704 16.2062 14.7518 16.2996 14.7141C16.393 14.6764 16.4778 14.6203 16.549 14.549C16.6203 14.4778 16.6764 14.393 16.7141 14.2996C16.7518 14.2062 16.7704 14.1062 16.7686 14.0055C16.7668 13.9048 16.7448 13.8055 16.7038 13.7135C16.6628 13.6215 16.6037 13.5387 16.53 13.47L15.06 12L16.53 10.53C16.6625 10.3878 16.7346 10.1998 16.7312 10.0055C16.7277 9.81118 16.649 9.62579 16.5116 9.48838C16.3742 9.35097 16.1888 9.27225 15.9945 9.26883C15.8002 9.2654 15.6122 9.33752 15.47 9.47L14 10.94L12.53 9.47ZM9.5 16.75C9.30109 16.75 9.11032 16.829 8.96967 16.9697C8.82902 17.1103 8.75 17.3011 8.75 17.5C8.75 17.6989 8.82902 17.8897 8.96967 18.0303C9.11032 18.171 9.30109 18.25 9.5 18.25H18.5C18.6989 18.25 18.8897 18.171 19.0303 18.0303C19.171 17.8897 19.25 17.6989 19.25 17.5C19.25 17.3011 19.171 17.1103 19.0303 16.9697C18.8897 16.829 18.6989 16.75 18.5 16.75H9.5Z" fill="#F0331B"/>
</svg>
