<svg width="28" height="28" viewBox="0 0 28 28" fill="none" xmlns="http://www.w3.org/2000/svg">
<path d="M15.732 23.77L16.274 22.854L14.984 22.09L14.441 23.006L15.732 23.77ZM11.726 22.854L12.268 23.77L13.558 23.006L13.017 22.09L11.726 22.854ZM14.441 23.006C14.3943 23.0808 14.3293 23.1425 14.2521 23.1853C14.175 23.228 14.0882 23.2505 14 23.2505C13.9118 23.2505 13.825 23.228 13.7479 23.1853C13.6707 23.1425 13.6057 23.0808 13.559 23.006L12.268 23.77C13.041 25.077 14.958 25.077 15.732 23.77L14.441 23.006ZM12.5 4.75H15.5V3.25H12.5V4.75ZM23.25 12.5V13.5H24.75V12.5H23.25ZM4.75 13.5V12.5H3.25V13.5H4.75ZM3.25 13.5C3.25 14.655 3.25 15.558 3.3 16.287C3.35 17.022 3.453 17.634 3.688 18.2L5.074 17.626C4.927 17.274 4.841 16.844 4.796 16.185C4.75 15.519 4.75 14.675 4.75 13.5H3.25ZM9.803 20.242C8.547 20.22 7.889 20.14 7.373 19.926L6.8 21.312C7.605 21.646 8.521 21.721 9.777 21.743L9.803 20.242ZM3.688 18.2C3.97697 18.8977 4.40052 19.5316 4.93448 20.0655C5.46844 20.5995 6.10234 21.023 6.8 21.312L7.373 19.926C6.33168 19.4947 5.50535 18.6673 5.074 17.626L3.688 18.2ZM23.25 13.5C23.25 14.675 23.25 15.519 23.204 16.185C23.159 16.844 23.073 17.274 22.927 17.626L24.312 18.2C24.547 17.634 24.65 17.022 24.701 16.287C24.751 15.558 24.75 14.655 24.75 13.5H23.25ZM18.223 21.741C19.479 21.72 20.395 21.646 21.2 21.312L20.626 19.926C20.111 20.14 19.453 20.22 18.198 20.242L18.223 21.741ZM22.927 17.626C22.4957 18.6673 21.6683 19.4947 20.627 19.926L21.2 21.312C21.8977 21.023 22.5316 20.5995 23.0655 20.0655C23.5995 19.5316 24.023 18.8977 24.312 18.2L22.927 17.626ZM15.5 4.75C17.151 4.75 18.337 4.75 19.262 4.839C20.176 4.926 20.757 5.092 21.221 5.376L22.004 4.097C21.265 3.645 20.427 3.443 19.404 3.345C18.392 3.249 17.122 3.25 15.5 3.25V4.75ZM24.75 12.5C24.75 10.878 24.75 9.609 24.654 8.596C24.557 7.573 24.355 6.734 23.903 5.996L22.623 6.779C22.908 7.243 23.074 7.824 23.161 8.739C23.249 9.663 23.25 10.849 23.25 12.5H24.75ZM21.22 5.376C21.7922 5.7263 22.2733 6.20707 22.624 6.779L23.903 5.996C23.4288 5.22198 22.778 4.57123 22.004 4.097L21.22 5.376ZM12.5 3.25C10.878 3.25 9.609 3.25 8.596 3.345C7.573 3.443 6.734 3.645 5.996 4.097L6.779 5.377C7.243 5.092 7.824 4.926 8.739 4.839C9.663 4.751 10.849 4.75 12.5 4.75V3.25ZM4.75 12.5C4.75 10.849 4.75 9.663 4.839 8.738C4.926 7.824 5.092 7.243 5.376 6.779L4.097 5.997C3.645 6.735 3.443 7.573 3.345 8.596C3.25 9.61 3.25 10.878 3.25 12.5H4.75ZM5.996 4.097C5.22198 4.57123 4.57123 5.22298 4.097 5.997L5.377 6.779C5.72714 6.2073 6.20755 5.72655 6.779 5.376L5.996 4.097ZM13.016 22.09C12.814 21.747 12.636 21.444 12.462 21.206C12.2837 20.9444 12.0511 20.7244 11.78 20.561L11.026 21.858C11.073 21.886 11.138 21.936 11.25 22.09C11.371 22.256 11.508 22.486 11.726 22.854L13.016 22.09ZM9.777 21.741C10.217 21.749 10.494 21.755 10.706 21.778C10.904 21.8 10.981 21.832 11.026 21.858L11.78 20.561C11.5006 20.4046 11.1903 20.3111 10.871 20.287C10.573 20.254 10.215 20.249 9.803 20.242L9.777 21.741ZM16.274 22.854C16.492 22.487 16.629 22.256 16.75 22.09C16.862 21.936 16.927 21.886 16.974 21.858L16.22 20.561C15.93 20.731 15.72 20.956 15.538 21.206C15.365 21.444 15.186 21.746 14.983 22.09L16.274 22.854ZM18.198 20.242C17.786 20.249 17.427 20.254 17.129 20.287C16.818 20.322 16.513 20.391 16.22 20.561L16.974 21.858C17.019 21.832 17.096 21.8 17.294 21.778C17.506 21.755 17.784 21.748 18.224 21.741L18.198 20.242Z" fill="#9C9C9C"/>
<path d="M10 11H18M10 14.5H15.5" stroke="#9C9C9C" stroke-width="1.5" stroke-linecap="round"/>
</svg>
