<svg width="28" height="28" viewBox="0 0 28 28" fill="none" xmlns="http://www.w3.org/2000/svg">
<path fill-rule="evenodd" clip-rule="evenodd" d="M15.629 22.472L15.087 23.388C14.604 24.204 13.397 24.204 12.913 23.388L12.371 22.472C11.951 21.762 11.741 21.406 11.403 21.21C11.065 21.013 10.64 21.006 9.79 20.991C8.534 20.97 7.747 20.893 7.087 20.619C6.48037 20.3677 5.92917 19.9994 5.46487 19.5351C5.00057 19.0708 4.63227 18.5196 4.381 17.913C4 16.995 4 15.83 4 13.5V12.5C4 9.227 4 7.59 4.737 6.388C5.14904 5.7152 5.71445 5.14945 6.387 4.737C7.59 4 9.228 4 12.5 4H15.5C18.773 4 20.41 4 21.613 4.737C22.2854 5.14917 22.8508 5.71456 23.263 6.387C24 7.59 24 9.228 24 12.5V13.5C24 15.83 24 16.995 23.62 17.913C23.3686 18.5197 23.0002 19.071 22.5357 19.5353C22.0712 19.9996 21.5198 20.3678 20.913 20.619C20.253 20.893 19.466 20.969 18.21 20.991C17.36 21.006 16.935 21.013 16.597 21.21C16.259 21.406 16.049 21.761 15.629 22.472ZM10 13.75C9.80109 13.75 9.61032 13.829 9.46967 13.9697C9.32902 14.1103 9.25 14.3011 9.25 14.5C9.25 14.6989 9.32902 14.8897 9.46967 15.0303C9.61032 15.171 9.80109 15.25 10 15.25H15.5C15.6989 15.25 15.8897 15.171 16.0303 15.0303C16.171 14.8897 16.25 14.6989 16.25 14.5C16.25 14.3011 16.171 14.1103 16.0303 13.9697C15.8897 13.829 15.6989 13.75 15.5 13.75H10ZM9.25 11C9.25 10.8011 9.32902 10.6103 9.46967 10.4697C9.61032 10.329 9.80109 10.25 10 10.25H18C18.1989 10.25 18.3897 10.329 18.5303 10.4697C18.671 10.6103 18.75 10.8011 18.75 11C18.75 11.1989 18.671 11.3897 18.5303 11.5303C18.3897 11.671 18.1989 11.75 18 11.75H10C9.80109 11.75 9.61032 11.671 9.46967 11.5303C9.32902 11.3897 9.25 11.1989 9.25 11Z" fill="#F0331B"/>
</svg>
