<svg width="28" height="28" viewBox="0 0 28 28" fill="none" xmlns="http://www.w3.org/2000/svg">
<path d="M18.755 4H9.245C8.086 4 7.507 4 7.039 4.163C6.59793 4.31972 6.19885 4.57586 5.87267 4.91158C5.54649 5.24731 5.30195 5.6536 5.158 6.099C5 6.581 5 7.177 5 8.37V22.374C5 23.232 5.985 23.688 6.608 23.118C6.78279 22.9565 7.01202 22.8668 7.25 22.8668C7.48798 22.8668 7.71721 22.9565 7.892 23.118L8.375 23.56C8.68121 23.8432 9.08293 24.0004 9.5 24.0004C9.91707 24.0004 10.3188 23.8432 10.625 23.56C10.9312 23.2768 11.3329 23.1196 11.75 23.1196C12.1671 23.1196 12.5688 23.2768 12.875 23.56C13.1812 23.8432 13.5829 24.0004 14 24.0004C14.4171 24.0004 14.8188 23.8432 15.125 23.56C15.4312 23.2768 15.8329 23.1196 16.25 23.1196C16.6671 23.1196 17.0688 23.2768 17.375 23.56C17.6812 23.8432 18.0829 24.0004 18.5 24.0004C18.9171 24.0004 19.3188 23.8432 19.625 23.56L20.108 23.118C20.2828 22.9565 20.512 22.8668 20.75 22.8668C20.988 22.8668 21.2172 22.9565 21.392 23.118C22.015 23.688 23 23.232 23 22.374V8.37C23 7.177 23 6.58 22.842 6.1C22.6982 5.65441 22.4537 5.24792 22.1275 4.91202C21.8013 4.57612 21.4022 4.31982 20.961 4.163C20.493 4 19.914 4 18.755 4Z" stroke="#9C9C9C" stroke-width="1.5"/>
<path d="M12.5 13H19M9 13H9.5M9 9.5H9.5M9 16.5H9.5M12.5 9.5H19M12.5 16.5H19" stroke="#9C9C9C" stroke-width="1.5" stroke-linecap="round"/>
</svg>
