<svg width="28" height="28" viewBox="0 0 28 28" fill="none" xmlns="http://www.w3.org/2000/svg">
<path fill-rule="evenodd" clip-rule="evenodd" d="M9.245 4H18.755C19.914 4 20.493 4 20.961 4.163C21.4021 4.31972 21.8011 4.57586 22.1273 4.91158C22.4535 5.24731 22.698 5.6536 22.842 6.099C23 6.581 23 7.177 23 8.37V22.374C23 23.232 22.015 23.688 21.392 23.118C21.2172 22.9565 20.988 22.8668 20.75 22.8668C20.512 22.8668 20.2828 22.9565 20.108 23.118L19.625 23.56C19.3188 23.8432 18.9171 24.0004 18.5 24.0004C18.0829 24.0004 17.6812 23.8432 17.375 23.56C17.0688 23.2768 16.6671 23.1196 16.25 23.1196C15.8329 23.1196 15.4312 23.2768 15.125 23.56C14.8188 23.8432 14.4171 24.0004 14 24.0004C13.5829 24.0004 13.1812 23.8432 12.875 23.56C12.5688 23.2768 12.1671 23.1196 11.75 23.1196C11.3329 23.1196 10.9312 23.2768 10.625 23.56C10.3188 23.8432 9.91707 24.0004 9.5 24.0004C9.08293 24.0004 8.68121 23.8432 8.375 23.56L7.892 23.118C7.71721 22.9565 7.48798 22.8668 7.25 22.8668C7.01202 22.8668 6.78279 22.9565 6.608 23.118C5.985 23.688 5 23.232 5 22.374V8.37C5 7.177 5 6.58 5.158 6.1C5.458 5.187 6.153 4.471 7.039 4.163C7.507 4 8.086 4 9.245 4ZM9 8.75C8.80109 8.75 8.61032 8.82902 8.46967 8.96967C8.32902 9.11032 8.25 9.30109 8.25 9.5C8.25 9.69891 8.32902 9.88968 8.46967 10.0303C8.61032 10.171 8.80109 10.25 9 10.25H9.5C9.69891 10.25 9.88968 10.171 10.0303 10.0303C10.171 9.88968 10.25 9.69891 10.25 9.5C10.25 9.30109 10.171 9.11032 10.0303 8.96967C9.88968 8.82902 9.69891 8.75 9.5 8.75H9ZM12.5 8.75C12.3011 8.75 12.1103 8.82902 11.9697 8.96967C11.829 9.11032 11.75 9.30109 11.75 9.5C11.75 9.69891 11.829 9.88968 11.9697 10.0303C12.1103 10.171 12.3011 10.25 12.5 10.25H19C19.1989 10.25 19.3897 10.171 19.5303 10.0303C19.671 9.88968 19.75 9.69891 19.75 9.5C19.75 9.30109 19.671 9.11032 19.5303 8.96967C19.3897 8.82902 19.1989 8.75 19 8.75H12.5ZM9 12.25C8.80109 12.25 8.61032 12.329 8.46967 12.4697C8.32902 12.6103 8.25 12.8011 8.25 13C8.25 13.1989 8.32902 13.3897 8.46967 13.5303C8.61032 13.671 8.80109 13.75 9 13.75H9.5C9.69891 13.75 9.88968 13.671 10.0303 13.5303C10.171 13.3897 10.25 13.1989 10.25 13C10.25 12.8011 10.171 12.6103 10.0303 12.4697C9.88968 12.329 9.69891 12.25 9.5 12.25H9ZM12.5 12.25C12.3011 12.25 12.1103 12.329 11.9697 12.4697C11.829 12.6103 11.75 12.8011 11.75 13C11.75 13.1989 11.829 13.3897 11.9697 13.5303C12.1103 13.671 12.3011 13.75 12.5 13.75H19C19.1989 13.75 19.3897 13.671 19.5303 13.5303C19.671 13.3897 19.75 13.1989 19.75 13C19.75 12.8011 19.671 12.6103 19.5303 12.4697C19.3897 12.329 19.1989 12.25 19 12.25H12.5ZM9 15.75C8.80109 15.75 8.61032 15.829 8.46967 15.9697C8.32902 16.1103 8.25 16.3011 8.25 16.5C8.25 16.6989 8.32902 16.8897 8.46967 17.0303C8.61032 17.171 8.80109 17.25 9 17.25H9.5C9.69891 17.25 9.88968 17.171 10.0303 17.0303C10.171 16.8897 10.25 16.6989 10.25 16.5C10.25 16.3011 10.171 16.1103 10.0303 15.9697C9.88968 15.829 9.69891 15.75 9.5 15.75H9ZM12.5 15.75C12.3011 15.75 12.1103 15.829 11.9697 15.9697C11.829 16.1103 11.75 16.3011 11.75 16.5C11.75 16.6989 11.829 16.8897 11.9697 17.0303C12.1103 17.171 12.3011 17.25 12.5 17.25H19C19.1989 17.25 19.3897 17.171 19.5303 17.0303C19.671 16.8897 19.75 16.6989 19.75 16.5C19.75 16.3011 19.671 16.1103 19.5303 15.9697C19.3897 15.829 19.1989 15.75 19 15.75H12.5Z" fill="#F0331B"/>
</svg>
