<svg width="28" height="28" viewBox="0 0 28 28" fill="none" xmlns="http://www.w3.org/2000/svg">
<path d="M12.0805 9.897C13.1575 7.966 13.6956 7 14.5006 7C15.3056 7 15.8436 7.966 16.9206 9.897L17.1986 10.397C17.5046 10.946 17.6586 11.22 17.8966 11.401C18.1346 11.582 18.4315 11.649 19.0265 11.784L19.5666 11.906C21.6576 12.379 22.7036 12.616 22.9516 13.416C23.2006 14.216 22.4876 15.049 21.0616 16.716L20.6936 17.146C20.2886 17.62 20.0866 17.857 19.9946 18.15C19.9046 18.443 19.9346 18.759 19.9956 19.39L20.0516 19.966C20.2676 22.19 20.3746 23.302 19.7236 23.796C19.0726 24.29 18.0936 23.84 16.1366 22.939L15.6296 22.705C15.0736 22.449 14.7956 22.321 14.5006 22.321C14.2056 22.321 13.9275 22.449 13.3705 22.705L12.8645 22.939C10.9075 23.839 9.92855 24.291 9.27755 23.796C8.62655 23.302 8.73455 22.19 8.94955 19.966L9.00555 19.391C9.06655 18.759 9.09755 18.443 9.00555 18.151C8.91555 17.857 8.71255 17.621 8.30755 17.147L7.93855 16.715C6.51355 15.049 5.80055 14.215 6.04855 13.415C6.29855 12.615 7.34355 12.379 9.43455 11.906L9.97455 11.784C10.5695 11.649 10.8665 11.582 11.1045 11.401C11.3435 11.221 11.4965 10.946 11.8025 10.397L12.0805 9.897Z" stroke="#9C9C9C" stroke-width="1.5"/>
<path d="M6.99 4C6.99 4 7.278 5.458 7.91 6.085C8.54 6.712 10 6.99 10 6.99C10 6.99 8.542 7.278 7.915 7.91C7.288 8.54 7.01 10 7.01 10C7.01 10 6.722 8.542 6.09 7.915C5.46 7.288 4 7.01 4 7.01C4 7.01 5.458 6.722 6.085 6.09C6.712 5.46 6.99 4 6.99 4Z" stroke="#9C9C9C" stroke-linejoin="round"/>
<path d="M20 7H22M21 8V6" stroke="#9C9C9C" stroke-width="1.5" stroke-linecap="round"/>
</svg>
