<svg width="28" height="28" viewBox="0 0 28 28" fill="none" xmlns="http://www.w3.org/2000/svg">
<path d="M12.0809 9.89699C13.1579 7.96599 13.6959 6.99999 14.5009 6.99999C15.3059 6.99999 15.8439 7.96599 16.9209 9.89699L17.1989 10.397C17.5049 10.946 17.6589 11.22 17.8969 11.401C18.1349 11.582 18.4319 11.649 19.0269 11.784L19.5669 11.906C21.6579 12.379 22.7039 12.616 22.9519 13.416C23.2009 14.216 22.4879 15.049 21.0619 16.716L20.6939 17.146C20.2889 17.62 20.0869 17.857 19.9949 18.15C19.9049 18.443 19.9349 18.759 19.9959 19.39L20.0519 19.966C20.2679 22.19 20.3749 23.302 19.7239 23.796C19.0729 24.29 18.0939 23.84 16.1369 22.939L15.6299 22.705C15.0739 22.449 14.7959 22.321 14.5009 22.321C14.2059 22.321 13.9279 22.449 13.3709 22.705L12.8649 22.939C10.9079 23.839 9.92888 24.291 9.27788 23.796C8.62688 23.302 8.73488 22.19 8.94988 19.966L9.00588 19.391C9.06688 18.759 9.09788 18.443 9.00588 18.151C8.91588 17.857 8.71288 17.621 8.30788 17.147L7.93888 16.715C6.51388 15.049 5.80088 14.215 6.04888 13.415C6.29888 12.615 7.34388 12.379 9.43488 11.906L9.97488 11.784C10.5699 11.649 10.8669 11.582 11.1049 11.401C11.3439 11.221 11.4969 10.946 11.8029 10.397L12.0809 9.89699ZM6.86888 4.49999C6.89888 4.39499 7.08588 4.39399 7.11688 4.49999C7.25688 4.98199 7.51688 5.69399 7.90988 6.08499C8.30288 6.47499 9.01788 6.73099 9.49988 6.86799C9.60688 6.89799 9.60688 7.08499 9.50188 7.11599C9.01988 7.25599 8.30688 7.51599 7.91588 7.90899C7.52588 8.30199 7.27088 9.01699 7.13388 9.49899C7.10388 9.60599 6.91588 9.60599 6.88488 9.50099C6.74488 9.01899 6.48488 8.30599 6.09188 7.91499C5.69888 7.52499 4.98488 7.26999 4.50188 7.13299C4.39588 7.10299 4.39488 6.91499 4.50088 6.88399C4.98288 6.74399 5.69488 6.48399 6.08588 6.09099C6.47588 5.69799 6.73188 4.98299 6.86888 4.49999Z" fill="#F0331B"/>
<path fill-rule="evenodd" clip-rule="evenodd" d="M21 5.25C21.1989 5.25 21.3897 5.32902 21.5303 5.46967C21.671 5.61032 21.75 5.80109 21.75 6V6.25H22C22.1989 6.25 22.3897 6.32902 22.5303 6.46967C22.671 6.61032 22.75 6.80109 22.75 7C22.75 7.19891 22.671 7.38968 22.5303 7.53033C22.3897 7.67098 22.1989 7.75 22 7.75H21.75V8C21.75 8.19891 21.671 8.38968 21.5303 8.53033C21.3897 8.67098 21.1989 8.75 21 8.75C20.8011 8.75 20.6103 8.67098 20.4697 8.53033C20.329 8.38968 20.25 8.19891 20.25 8V7.75H20C19.8011 7.75 19.6103 7.67098 19.4697 7.53033C19.329 7.38968 19.25 7.19891 19.25 7C19.25 6.80109 19.329 6.61032 19.4697 6.46967C19.6103 6.32902 19.8011 6.25 20 6.25H20.25V6C20.25 5.80109 20.329 5.61032 20.4697 5.46967C20.6103 5.32902 20.8011 5.25 21 5.25Z" fill="#F0331B"/>
</svg>
