<svg width="28" height="28" viewBox="0 0 28 28" fill="none" xmlns="http://www.w3.org/2000/svg">
<path fill-rule="evenodd" clip-rule="evenodd" d="M15.7665 4.152C15.3992 4 14.9327 4 14.0006 4C13.0685 4 12.603 4 12.2347 4.152C11.9924 4.25175 11.7721 4.39878 11.5864 4.58465C11.4007 4.77051 11.2533 4.99154 11.1527 5.235C11.0594 5.458 11.0237 5.719 11.0088 6.098C11.0017 6.3725 10.9255 6.64068 10.7873 6.87736C10.6491 7.11403 10.4534 7.31142 10.2187 7.451C9.9792 7.5851 9.71 7.65615 9.43602 7.65754C9.16204 7.65894 8.89213 7.59065 8.65132 7.459C8.31581 7.281 8.07262 7.183 7.8324 7.151C7.30689 7.08192 6.77552 7.2242 6.35339 7.547C6.03773 7.789 5.80446 8.193 5.33892 9C4.87238 9.807 4.64011 10.21 4.5875 10.605C4.51802 11.131 4.66095 11.663 4.98455 12.084C5.13146 12.276 5.33892 12.437 5.65954 12.639C6.13302 12.936 6.43677 13.442 6.43677 14C6.43677 14.558 6.13302 15.064 5.66053 15.36C5.33892 15.563 5.13146 15.724 4.98356 15.916C4.82431 16.1242 4.70736 16.362 4.6394 16.6158C4.57144 16.8696 4.55381 17.1343 4.5875 17.395C4.64011 17.789 4.87238 18.193 5.33892 19C5.80546 19.807 6.03773 20.21 6.35339 20.453C6.77426 20.776 7.30631 20.918 7.8324 20.849C8.07262 20.817 8.31581 20.719 8.65132 20.541C8.89226 20.4092 9.16234 20.3408 9.43652 20.3422C9.71069 20.3436 9.98007 20.4147 10.2197 20.549C10.7021 20.829 10.988 21.344 11.0088 21.902C11.0237 22.282 11.0594 22.542 11.1527 22.765C11.3552 23.255 11.7444 23.645 12.2347 23.848C12.602 24 13.0685 24 14.0006 24C14.9327 24 15.3992 24 15.7665 23.848C16.0088 23.7483 16.2291 23.6012 16.4148 23.4154C16.6005 23.2295 16.7479 23.0085 16.8484 22.765C16.9418 22.542 16.9775 22.282 16.9924 21.902C17.0122 21.344 17.2991 20.828 17.7825 20.549C18.022 20.4149 18.2912 20.3439 18.5652 20.3425C18.8392 20.3411 19.1091 20.4093 19.3499 20.541C19.6854 20.719 19.9286 20.817 20.1688 20.849C20.6949 20.919 21.2269 20.776 21.6478 20.453C21.9635 20.211 22.1967 19.807 22.6623 19C23.1288 18.193 23.3611 17.79 23.4137 17.395C23.4472 17.1343 23.4294 16.8695 23.3613 16.6157C23.2932 16.3619 23.1761 16.1241 23.0166 15.916C22.8697 15.724 22.6623 15.563 22.3417 15.361C21.8682 15.064 21.5644 14.558 21.5644 14C21.5644 13.442 21.8682 12.936 22.3407 12.64C22.6623 12.437 22.8697 12.276 23.0176 12.084C23.1769 11.8758 23.2938 11.638 23.3618 11.3842C23.4297 11.1304 23.4474 10.8657 23.4137 10.605C23.3611 10.211 23.1288 9.807 22.6623 9C22.1957 8.193 21.9635 7.79 21.6478 7.547C21.2257 7.2242 20.6943 7.08192 20.1688 7.151C19.9286 7.183 19.6854 7.281 19.3499 7.459C19.1089 7.59083 18.8388 7.65922 18.5647 7.65782C18.2905 7.65642 18.0211 7.58528 17.7815 7.451C17.547 7.3113 17.3515 7.11385 17.2135 6.87719C17.0754 6.64052 16.9994 6.37241 16.9924 6.098C16.9775 5.718 16.9418 5.458 16.8484 5.235C16.7479 4.99154 16.6005 4.77051 16.4148 4.58465C16.2291 4.39878 16.0088 4.25175 15.7665 4.152ZM14.0006 17C15.6583 17 17.0013 15.657 17.0013 14C17.0013 12.343 15.6573 11 14.0006 11C12.3439 11 10.9999 12.343 10.9999 14C10.9999 15.657 12.3439 17 14.0006 17Z" fill="#F0331B"/>
</svg>
