<svg width="28" height="28" viewBox="0 0 28 28" fill="none" xmlns="http://www.w3.org/2000/svg">
<path d="M14 17C15.6569 17 17 15.6569 17 14C17 12.3431 15.6569 11 14 11C12.3431 11 11 12.3431 11 14C11 15.6569 12.3431 17 14 17Z" stroke="#9C9C9C" stroke-width="1.5"/>
<path d="M15.7655 4.152C15.3985 4 14.9325 4 14.0005 4C13.0685 4 12.6025 4 12.2355 4.152C11.9926 4.25251 11.772 4.3999 11.5862 4.58572C11.4003 4.77155 11.253 4.99218 11.1525 5.235C11.0605 5.458 11.0235 5.719 11.0095 6.098C11.0029 6.37193 10.9271 6.63973 10.7889 6.87635C10.6507 7.11298 10.4548 7.31069 10.2195 7.451C9.98026 7.58477 9.71104 7.65567 9.43698 7.65707C9.16293 7.65847 8.893 7.59032 8.65245 7.459C8.31645 7.281 8.07345 7.183 7.83245 7.151C7.30677 7.08187 6.77515 7.22431 6.35445 7.547C6.04045 7.79 5.80645 8.193 5.34045 9C4.87445 9.807 4.64045 10.21 4.58945 10.605C4.55509 10.8655 4.57237 11.1301 4.64032 11.3839C4.70826 11.6377 4.82554 11.8756 4.98545 12.084C5.13345 12.276 5.34045 12.437 5.66145 12.639C6.13445 12.936 6.43845 13.442 6.43845 14C6.43845 14.558 6.13445 15.064 5.66145 15.36C5.34045 15.563 5.13245 15.724 4.98545 15.916C4.82554 16.1244 4.70826 16.3623 4.64032 16.6161C4.57237 16.8699 4.55509 17.1345 4.58945 17.395C4.64145 17.789 4.87445 18.193 5.33945 19C5.80645 19.807 6.03945 20.21 6.35445 20.453C6.56289 20.6129 6.80078 20.7302 7.05456 20.7981C7.30833 20.8661 7.573 20.8834 7.83345 20.849C8.07345 20.817 8.31645 20.719 8.65245 20.541C8.893 20.4097 9.16293 20.3415 9.43698 20.3429C9.71104 20.3443 9.98026 20.4152 10.2195 20.549C10.7025 20.829 10.9895 21.344 11.0095 21.902C11.0235 22.282 11.0595 22.542 11.1525 22.765C11.253 23.0078 11.4003 23.2284 11.5862 23.4143C11.772 23.6001 11.9926 23.7475 12.2355 23.848C12.6025 24 13.0685 24 14.0005 24C14.9325 24 15.3985 24 15.7655 23.848C16.0083 23.7475 16.2289 23.6001 16.4147 23.4143C16.6006 23.2284 16.7479 23.0078 16.8484 22.765C16.9404 22.542 16.9775 22.282 16.9915 21.902C17.0115 21.344 17.2985 20.828 17.7815 20.549C18.0206 20.4152 18.2899 20.3443 18.5639 20.3429C18.838 20.3415 19.1079 20.4097 19.3484 20.541C19.6844 20.719 19.9274 20.817 20.1674 20.849C20.4279 20.8834 20.6926 20.8661 20.9463 20.7981C21.2001 20.7302 21.438 20.6129 21.6465 20.453C21.9615 20.211 22.1944 19.807 22.6604 19C23.1264 18.193 23.3604 17.79 23.4114 17.395C23.4458 17.1345 23.4285 16.8699 23.3606 16.6161C23.2926 16.3623 23.1754 16.1244 23.0154 15.916C22.8674 15.724 22.6605 15.563 22.3395 15.361C22.1054 15.2184 21.9113 15.0187 21.7754 14.7807C21.6395 14.5427 21.5663 14.2741 21.5625 14C21.5625 13.442 21.8665 12.936 22.3395 12.64C22.6605 12.437 22.8684 12.276 23.0154 12.084C23.1754 11.8756 23.2926 11.6377 23.3606 11.3839C23.4285 11.1301 23.4458 10.8655 23.4114 10.605C23.3594 10.211 23.1264 9.807 22.6614 9C22.1944 8.193 21.9615 7.79 21.6465 7.547C21.438 7.38709 21.2001 7.26981 20.9463 7.20187C20.6926 7.13392 20.4279 7.11664 20.1674 7.151C19.9274 7.183 19.6845 7.281 19.3475 7.459C19.107 7.59014 18.8373 7.6582 18.5634 7.6568C18.2896 7.6554 18.0205 7.58459 17.7815 7.451C17.5461 7.31069 17.3502 7.11298 17.212 6.87635C17.0738 6.63973 16.998 6.37193 16.9915 6.098C16.9775 5.718 16.9414 5.458 16.8484 5.235C16.7479 4.99218 16.6006 4.77155 16.4147 4.58572C16.2289 4.3999 16.0083 4.25251 15.7655 4.152Z" stroke="#9C9C9C" stroke-width="1.5"/>
</svg>
