<svg width="28" height="28" viewBox="0 0 28 28" fill="none" xmlns="http://www.w3.org/2000/svg">
<path d="M14 9V15" stroke="#9C9C9C" stroke-width="1.5" stroke-linecap="round"/>
<path d="M14 19C14.5523 19 15 18.5523 15 18C15 17.4477 14.5523 17 14 17C13.4477 17 13 17.4477 13 18C13 18.5523 13.4477 19 14 19Z" fill="#9C9C9C"/>
<path d="M9.843 5.802C11.872 4.601 12.886 4 14 4C15.114 4 16.128 4.6 18.157 5.802L18.843 6.208C20.872 7.41 21.886 8.011 22.443 9C23 9.99 23 11.19 23 13.594V14.406C23 16.809 23 18.011 22.443 19C21.886 19.989 20.872 20.59 18.843 21.791L18.157 22.198C16.128 23.399 15.114 24 14 24C12.886 24 11.872 23.4 9.843 22.198L9.157 21.791C7.128 20.591 6.114 19.989 5.557 19C5 18.01 5 16.81 5 14.406V13.594C5 11.19 5 9.989 5.557 9C6.114 8.011 7.128 7.41 9.157 6.208L9.843 5.802Z" stroke="#9C9C9C" stroke-width="1.5"/>
</svg>
