<svg width="40" height="40" viewBox="0 0 40 40" fill="none" xmlns="http://www.w3.org/2000/svg">
<path d="M31.352 23.3086H30.7576V24.4194H30.4645V25.9081H29.342V22.7758H30.4645V20.1714H31.166L31.1192 11.5978H29.8097L29.7512 6.76542H29.0771V2.8261L28.4068 2.83116V0.732619H26.6765V1.69913H27.6789V2.83658L27.7521 10.0078H27.2065V13.2502H27.7209V15.0585H26.0529V19.4076H24.993V16.1184H24.3694V11.5978H23.5899V10.4443H22.4832V13.2502H22.8105V15.3858H21.8596V16.9992H20.7528V15.0585H20.9945V13.2502H20.4372V14.2479H19.1161V16.1184H18.5744L18.6328 19.4076H17.3701V16.9992H16.1854V11.1302H15.0007V10.0078H15.8113V7.3889L15.7568 2.72799H16.4972V0H15.8113V1.24706H14.6812V3.71004V5.08183V6.26659H13.5509V9.25955H11.2428V13.9361H12.1469V18.3983H12.7704L12.7081 20.5612H11.726V19.4388H10.5413V17.88H11.0401V16.1184H9.98011V17.9112H8.98242V23.4918H10.286V25.4612H10.9789V29.6046H12.1324L12.1672 33.7501H14.2992V35.682H15.6387V38.4266H18.6473V40H22.4832V38.5659L24.0087 38.6118V36.7854H26.348V34.3013H28.3901V30.834H29.9178L29.8841 28.9132H31.352V23.3086Z" fill="#F0331B"/>
</svg>
